<?xml version="1.0" standalone="no"?>
<!DOCTYPE svg PUBLIC "-//W3C//DTD SVG 20010904//EN"
 "http://www.w3.org/TR/2001/REC-SVG-20010904/DTD/svg10.dtd">
<svg version="1.0" xmlns="http://www.w3.org/2000/svg"
 width="400.000000pt" height="400.000000pt" viewBox="0 0 400.000000 400.000000"
 preserveAspectRatio="xMidYMid meet">
<metadata>
Created by potrace 1.11, written by Peter Selinger 2001-2013
</metadata>
<g transform="translate(0.000000,400.000000) scale(0.100000,-0.100000)"
fill="#000000" stroke="none">
<path d="M312 2010 l-1 -1841 595 1 c375 1 596 5 600 11 4 6 11 6 19 -1 15
-13 1239 -9 1310 4 259 47 439 127 581 259 199 185 298 457 297 817 0 58 -4
121 -8 140 -4 19 -8 49 -10 67 -6 55 -46 175 -80 244 -79 156 -183 255 -337
323 l-75 32 65 35 c86 45 216 172 270 264 58 99 93 200 110 320 9 62 9 282 0
350 -19 145 -106 363 -178 445 -181 207 -360 298 -705 357 -59 10 -1216 13
-1175 3 19 -5 53 -11 75 -14 376 -58 722 -307 913 -656 61 -112 121 -275 148
-403 41 -193 48 -292 47 -742 0 -444 -6 -570 -35 -715 -6 -30 -12 -64 -14 -75
-15 -98 -103 -321 -168 -430 -158 -262 -400 -459 -681 -554 -83 -28 -277 -71
-317 -70 -20 0 2 8 57 20 205 44 380 117 521 217 210 149 384 391 474 660 26
78 36 119 65 257 22 106 29 270 29 665 0 355 -8 602 -19 620 -2 3 -7 29 -10
56 -4 27 -9 58 -12 69 -3 11 -7 29 -9 40 -1 11 -20 75 -42 142 -68 205 -151
351 -284 499 -74 81 -202 189 -274 229 -107 60 -134 73 -198 99 -74 29 -259
76 -301 76 -14 0 -25 6 -25 13 0 9 -3 8 -9 -2 -6 -8 -11 -10 -15 -3 -4 7 -197
11 -600 12 l-594 1 0 -1841z m631 483 c9 -2 17 -11 17 -18 0 -26 44 -39 138
-41 106 -3 149 -15 193 -51 66 -56 71 -113 13 -131 -31 -9 -38 -8 -61 14 -15
14 -39 25 -57 25 -17 1 -62 3 -101 4 -38 1 -79 3 -91 4 -12 0 -38 12 -58 26
l-36 24 -36 -24 c-20 -14 -44 -25 -53 -26 -9 -1 -53 -2 -98 -4 -108 -3 -147
-11 -167 -34 -16 -18 -20 -18 -62 -4 -24 8 -44 19 -44 24 0 21 34 76 64 102
44 38 83 49 194 52 111 3 125 7 141 41 9 20 17 24 48 23 21 -1 46 -3 56 -6z
m-148 -374 c138 -39 282 -80 320 -91 39 -11 72 -22 74 -24 5 -5 4 -155 -1
-158 -11 -7 -674 -193 -677 -190 -8 7 -10 150 -3 161 6 9 291 81 386 97 59 10
63 9 -239 80 -5 2 -28 6 -50 10 -22 4 -54 12 -71 17 l-31 10 2 77 c3 99 2 94
23 88 9 -3 130 -37 267 -77z m394 -504 c7 -8 4 -386 -4 -393 -9 -9 -646 -10
-665 -1 -13 6 -16 37 -15 201 l0 193 68 3 c49 2 67 0 68 -10 1 -7 2 -62 3
-122 l1 -110 63 -1 c70 -1 64 -13 63 117 0 50 4 80 12 85 18 11 107 10 115 -2
4 -5 7 -53 7 -105 l1 -95 74 0 75 0 1 105 c2 140 1 138 22 142 21 4 104 -1
111 -7z m-200 -504 c52 -11 113 -44 143 -77 42 -48 59 -113 60 -237 1 -75 -3
-121 -10 -126 -6 -3 -157 -6 -337 -6 -256 1 -328 3 -334 14 -9 14 -6 220 3
261 9 38 57 101 101 132 69 48 245 67 374 39z m-399 -566 c14 -5 71 -9 127
-10 92 -2 107 -5 142 -28 l40 -27 37 25 c20 14 42 25 48 26 6 1 52 2 103 4
107 3 141 10 168 35 18 17 23 17 56 4 35 -15 36 -16 30 -66 -1 -4 -15 -23 -31
-42 -45 -51 -98 -68 -216 -71 -109 -2 -121 -6 -133 -38 -7 -18 -17 -22 -60
-23 -46 -1 -54 2 -63 22 -14 31 -36 37 -138 39 -91 2 -150 16 -190 47 -27 21
-70 85 -70 105 0 6 19 18 43 26 38 13 44 13 62 -3 11 -10 31 -21 45 -25z"/>
<path d="M727 958 c-6 -4 -14 -5 -17 -3 -3 2 -19 -6 -35 -19 -23 -19 -29 -31
-29 -67 l-1 -44 205 0 c198 0 205 1 205 20 -2 68 -26 101 -84 112 -40 8 -232
9 -244 1z"/>
</g>
</svg>
